<svg xmlns="http://www.w3.org/2000/svg" viewBox="0 0 480 68.2">
  <g id="Layer_2" data-name="Layer 2">
    <g id="Layer_1-2" data-name="Layer 1">
      <g>
        <path d="M100.2,63.9V56.8h1.4l1.7,5a3.3,3.3,0,0,1,.3,1l.4-1.1,1.7-4.9H107v7.1h-.9V58L104,63.9h-.8l-2-6v6Z"/>
        <path d="M109.8,63.9l2.7-7.1h1l2.9,7.1h-1.1l-.8-2.1h-3l-.8,2.1Zm2.1-2.9h2.4l-.7-2-.5-1.5a7.4,7.4,0,0,1-.4,1.4Z"/>
        <path d="M118.6,63.9l2.7-3.7-2.4-3.4H120l1.3,1.8.6.9a4.2,4.2,0,0,1,.6-.8l1.4-1.9h1l-2.5,3.3,2.7,3.7h-1.2l-1.8-2.5-.3-.5-.3.5-1.8,2.5h-1.1Z"/>
        <path d="M128.1,63.9V56.8h.9v7.1Z"/>
        <path d="M132.8,63.9V56.8h1.4l1.7,5a3.3,3.3,0,0,1,.3,1l.4-1.1,1.7-4.9h1.3v7.1h-.9V58l-2.1,5.9h-.8l-2-6v6Z"/>
        <path d="M143.3,63.9V56.8h.9v7.1Z"/>
        <path d="M147.4,63.9V63l3.6-4.5.7-.8h-4v-.8h5.1v.8l-4,4.9-.4.5h4.5v.8Z"/>
        <path d="M156.3,63.9V56.8h.9v7.1Z"/>
        <path d="M160.9,63.9V56.8h1l3.7,5.6V56.8h.9v7.1h-1l-3.7-5.6v5.6Z"/>
        <path d="M173.5,61.1v-.8h3v2.6a5,5,0,0,1-1.4.8,4,4,0,0,1-1.5.3,4.1,4.1,0,0,1-1.9-.4,2.7,2.7,0,0,1-1.3-1.3,4.7,4.7,0,0,1,0-3.8,3,3,0,0,1,1.2-1.3,3.8,3.8,0,0,1,1.9-.4l1.4.2,1,.7a3.3,3.3,0,0,1,.5,1.2l-.8.2a2.5,2.5,0,0,0-.4-.9,1.8,1.8,0,0,0-.7-.5l-1-.2-1.1.2-.8.5a1.6,1.6,0,0,0-.4.7,3.2,3.2,0,0,0-.3,1.4,3.8,3.8,0,0,0,.3,1.6,1.8,1.8,0,0,0,1,.9,3.1,3.1,0,0,0,1.3.3l1.2-.2.9-.5V61.1Z"/>
        <path d="M186,63.9l-1.9-7.1h1l1.1,4.6.3,1.5a13.2,13.2,0,0,0,.3-1.3l1.3-4.8h1.1l1,3.6c.3.9.4,1.7.6,2.5a11.3,11.3,0,0,1,.4-1.5l1.1-4.6h.9l-1.9,7.1h-.9l-1.5-5.4c-.1-.5-.2-.7-.2-.8s-.1.6-.2.8L187,63.9Z"/>
        <path d="M196.3,63.9V56.8h5.1v.8h-4.2v2.2h3.9v.8h-3.9V63h4.4v.8h-5.3Z"/>
        <path d="M204.9,63.9V56.8h.9V63h3.5v.8h-4.4Z"/>
        <path d="M212.5,63.9V56.8h.9V63h3.5v.8h-4.4Z"/>
        <path d="M220.1,63.9V56.8h1l3.7,5.6V56.8h.9v7.1h-1L221,58.3v5.6Z"/>
        <path d="M229.4,63.9V56.8h5.1v.8h-4.2v2.2h3.9v.8h-3.9V63h4.4v.8h-5.3Z"/>
        <path d="M237.7,61.6h.9a1.4,1.4,0,0,0,.3.9l.7.6,1.1.2.9-.2a1.5,1.5,0,0,0,.6-.4,1,1,0,0,0,0-1.2.9.9,0,0,0-.6-.4l-1.3-.3-1.4-.4a2.7,2.7,0,0,1-.8-.7,1.5,1.5,0,0,1-.2-.9,1.7,1.7,0,0,1,.3-1,2.2,2.2,0,0,1,.9-.7,2.7,2.7,0,0,1,1.3-.2,3.2,3.2,0,0,1,1.4.3,2.2,2.2,0,0,1,.9.7,2,2,0,0,1,.3,1.1h-.9a1.2,1.2,0,0,0-.5-1,2.1,2.1,0,0,0-1.2-.3,1.7,1.7,0,0,0-1.2.3.9.9,0,0,0-.4.8.6.6,0,0,0,.3.6,4.2,4.2,0,0,0,1.4.5,6,6,0,0,1,1.6.5,2.2,2.2,0,0,1,.9.7,1.7,1.7,0,0,1,.3,1,2.3,2.3,0,0,1-.3,1.1,2.4,2.4,0,0,1-.9.8,3.2,3.2,0,0,1-1.4.3,3.8,3.8,0,0,1-1.6-.3,2.7,2.7,0,0,1-1-.8A3.7,3.7,0,0,1,237.7,61.6Z"/>
        <path d="M246.4,61.6h.9a1.4,1.4,0,0,0,.3.9l.7.6,1.1.2.9-.2.6-.4a1,1,0,0,0,0-1.2.9.9,0,0,0-.6-.4l-1.3-.3-1.4-.4a2.7,2.7,0,0,1-.8-.7,1.5,1.5,0,0,1-.2-.9,1.7,1.7,0,0,1,.3-1,2.2,2.2,0,0,1,.9-.7,2.7,2.7,0,0,1,1.3-.2,3.2,3.2,0,0,1,1.4.3,2.2,2.2,0,0,1,.9.7,2,2,0,0,1,.3,1.1h-.9a1.2,1.2,0,0,0-.5-1,2.1,2.1,0,0,0-1.2-.3,1.7,1.7,0,0,0-1.2.3.9.9,0,0,0-.4.8.6.6,0,0,0,.3.6,4.2,4.2,0,0,0,1.4.5,6,6,0,0,1,1.6.5,2.2,2.2,0,0,1,.9.7,1.7,1.7,0,0,1,.3,1,2.3,2.3,0,0,1-.3,1.1,2.4,2.4,0,0,1-.9.8,3.2,3.2,0,0,1-1.4.3,3.8,3.8,0,0,1-1.6-.3,2.7,2.7,0,0,1-1-.8A3.7,3.7,0,0,1,246.4,61.6Z"/>
        <path d="M260,60.4a4.1,4.1,0,0,1,.9-2.8,3,3,0,0,1,2.4-1,3.7,3.7,0,0,1,1.8.5,3,3,0,0,1,1.2,1.3,4.1,4.1,0,0,1,.4,1.9,3.8,3.8,0,0,1-.4,1.9,3,3,0,0,1-1.2,1.3,3.3,3.3,0,0,1-1.7.4,3.5,3.5,0,0,1-1.8-.5,3.7,3.7,0,0,1-1.2-1.3A2.9,2.9,0,0,1,260,60.4Zm.9.1a2.6,2.6,0,0,0,.7,2,2.2,2.2,0,0,0,1.7.7,2.1,2.1,0,0,0,1.7-.7,2.8,2.8,0,0,0,.7-2.1,3.3,3.3,0,0,0-.3-1.5,2.2,2.2,0,0,0-.9-1,2.8,2.8,0,0,0-1.3-.4,2.2,2.2,0,0,0-1.7.7A4,4,0,0,0,260.9,60.5Z"/>
        <path d="M270,63.9V56.8h1l3.7,5.6V56.8h.9v7.1h-1l-3.7-5.6v5.6Z"/>
        <path d="M279.3,63.9V56.8h5.1v.8h-4.2v2.2h3.9v.8h-3.9V63h4.4v.8h-5.3Z"/>
        <path d="M297.4,56.8h.9v4.1a7.2,7.2,0,0,1-.2,1.7,2.2,2.2,0,0,1-.9,1,2.9,2.9,0,0,1-1.7.4,3.5,3.5,0,0,1-1.6-.3,2.2,2.2,0,0,1-.9-1,4.2,4.2,0,0,1-.3-1.8V56.8h.9v4.1a4.6,4.6,0,0,0,.2,1.4,1.3,1.3,0,0,0,.6.7,1.6,1.6,0,0,0,1,.2,2.1,2.1,0,0,0,1.5-.5,2.6,2.6,0,0,0,.4-1.8V56.8Z"/>
        <path d="M302,63.9V56.8h1l3.7,5.6V56.8h.9v7.1h-1l-3.7-5.6v5.6Z"/>
        <path d="M311.4,63.9V56.8h.9v7.1Z"/>
        <path d="M321.5,63.1l1.2.7-.3.7a6,6,0,0,1-1.5-.9,3.3,3.3,0,0,1-1.7.4,3.4,3.4,0,0,1-1.7-.5,3,3,0,0,1-1.2-1.3,4.7,4.7,0,0,1,0-3.8,3,3,0,0,1,1.2-1.3,3.4,3.4,0,0,1,1.8-.4,3.7,3.7,0,0,1,1.8.5,3,3,0,0,1,1.2,1.3,4.1,4.1,0,0,1,.4,1.9,4.1,4.1,0,0,1-.3,1.6Zm-2.1-1.2a4,4,0,0,1,1.3.7,2.8,2.8,0,0,0,.8-2.3,3.3,3.3,0,0,0-.3-1.5,2.2,2.2,0,0,0-.9-1,2.8,2.8,0,0,0-1.3-.4,2.1,2.1,0,0,0-1.7.7,3.5,3.5,0,0,0,0,4.2,2.2,2.2,0,0,0,1.7.7l.9-.2-.9-.4Z"/>
        <path d="M330.5,56.8h.9v4.1a7.2,7.2,0,0,1-.2,1.7,2.2,2.2,0,0,1-.9,1,2.9,2.9,0,0,1-1.7.4,3.5,3.5,0,0,1-1.6-.3,2.2,2.2,0,0,1-.9-1,4.2,4.2,0,0,1-.3-1.8V56.8h.9v4.1a4.6,4.6,0,0,0,.2,1.4,1.3,1.3,0,0,0,.6.7,1.6,1.6,0,0,0,1,.2,2.1,2.1,0,0,0,1.5-.5,2.6,2.6,0,0,0,.4-1.8V56.8Z"/>
        <path d="M335.1,63.9V56.8h5.1v.8h-4.1v2.2H340v.8h-3.9V63h4.4v.8h-5.4Z"/>
        <path d="M348.6,63.9V56.8h3.8l.9.3.6.7a3,3,0,0,1,.2,1,2,2,0,0,1-.6,1.5,2.9,2.9,0,0,1-2.1.6h-1.8v2.9Zm1-3.7h1.8a2.3,2.3,0,0,0,1.3-.3,1.1,1.1,0,0,0,.4-1,2.4,2.4,0,0,0-.2-.8.7.7,0,0,0-.6-.4h-2.7Z"/>
        <path d="M357.4,63.9V56.8h5.1v.8h-4.2v2.2h3.9v.8h-3.9V63h4.4v.8h-5.3Z"/>
        <path d="M366,63.9V56.8h3.1l1.4.2a1.8,1.8,0,0,1,.8.7,2,2,0,0,1,.3,1.1,2.1,2.1,0,0,1-.5,1.3,2.6,2.6,0,0,1-1.5.7l.6.4.8.9,1.2,1.9h-1.1l-.9-1.5-.7-1L369,61l-.4-.2H367v3.1Zm1-4h3l.6-.4a1.4,1.4,0,0,0,.2-.6.9.9,0,0,0-.4-.8,1.7,1.7,0,0,0-1.2-.3H367v2.2Z"/>
        <path d="M374.9,61.6h.9a1.4,1.4,0,0,0,.3.9l.7.6,1.1.2.9-.2a1.5,1.5,0,0,0,.6-.4,1,1,0,0,0,0-1.2.9.9,0,0,0-.6-.4l-1.3-.3-1.4-.4a2.7,2.7,0,0,1-.8-.7,1.5,1.5,0,0,1-.2-.9,1.7,1.7,0,0,1,.3-1,2.2,2.2,0,0,1,.9-.7,2.7,2.7,0,0,1,1.3-.2,3.2,3.2,0,0,1,1.4.3,2.2,2.2,0,0,1,.9.7,2,2,0,0,1,.3,1.1h-.9a1.2,1.2,0,0,0-.5-1,2.1,2.1,0,0,0-1.2-.3,1.7,1.7,0,0,0-1.2.3.9.9,0,0,0-.4.8.6.6,0,0,0,.3.6,4.2,4.2,0,0,0,1.4.5,6,6,0,0,1,1.6.5,2.2,2.2,0,0,1,.9.7,1.7,1.7,0,0,1,.3,1,2.3,2.3,0,0,1-.3,1.1,2.4,2.4,0,0,1-.9.8,3.2,3.2,0,0,1-1.4.3,3.8,3.8,0,0,1-1.6-.3,2.7,2.7,0,0,1-1-.8Z"/>
        <path d="M383.7,60.4a4.1,4.1,0,0,1,.9-2.8,3,3,0,0,1,2.4-1,3.7,3.7,0,0,1,1.8.5,3,3,0,0,1,1.2,1.3,4.1,4.1,0,0,1,.4,1.9,3.8,3.8,0,0,1-.4,1.9,3,3,0,0,1-1.2,1.3,3.3,3.3,0,0,1-1.7.4,3.5,3.5,0,0,1-1.8-.5,3.7,3.7,0,0,1-1.2-1.3A2.9,2.9,0,0,1,383.7,60.4Zm.9.1a2.6,2.6,0,0,0,.7,2,2.2,2.2,0,0,0,1.7.7,2.1,2.1,0,0,0,1.7-.7,2.8,2.8,0,0,0,.7-2.1,3.3,3.3,0,0,0-.3-1.5,2.2,2.2,0,0,0-.9-1,2.8,2.8,0,0,0-1.3-.4,2.2,2.2,0,0,0-1.7.7A4,4,0,0,0,384.6,60.5Z"/>
        <path d="M393.7,63.9V56.8h1l3.7,5.6V56.8h.9v7.1h-1l-3.7-5.6v5.6Z"/>
        <path d="M406.5,63.9l2.7-7.1h1l2.9,7.1H412l-.8-2.1h-3l-.8,2.1Zm2-2.9h2.4l-.7-2-.5-1.5a7.4,7.4,0,0,1-.4,1.4Z"/>
        <path d="M417,63.9V57.6h-2.3v-.8h5.6v.8H418v6.3Z"/>
        <path d="M426.7,63.9l2.7-7.1h1l2.9,7.1h-1.1l-.8-2.1h-3l-.8,2.1Zm2-2.9h2.4l-.7-2-.5-1.5a7.4,7.4,0,0,1-.4,1.4Z"/>
        <path d="M442.1,63.9V57.6h-2.3v-.8h5.6v.8h-2.3v6.3Z"/>
        <path d="M448.6,63.9V56.8h.9v7.1Z"/>
        <path d="M453.2,63.9V56.8h1.4l1.7,5a3.3,3.3,0,0,1,.3,1l.4-1.1,1.7-4.9H460v7.1h-.9V58L457,63.9h-.8l-2-6v6Z"/>
        <path d="M463.6,63.9V56.8h5.1v.8h-4.2v2.2h3.9v.8h-3.9V63h4.4v.8h-5.3Z"/>
      </g>
      <line x1="100.2" y1="49.3" x2="469.1" y2="49.3" style="fill: none;stroke: #000;stroke-miterlimit: 10;stroke-width: 0.44999998807907104px"/>
      <polygon points="132.6 17 119.1 35.5 105.7 17 100.2 17 100.2 42.2 106.1 42.2 106.1 27.6 116.7 42.2 121.2 42.2 131.8 27.6 131.8 42.2 137.7 42.2 137.7 17 132.6 17"/>
      <polygon points="190.4 31.3 202.7 20.6 195.1 20.6 186.7 28.2 178.2 20.6 170.6 20.6 182.9 31.4 170.6 42.2 178.2 42.2 186.7 34.6 195.2 42.2 202.7 42.2 190.4 31.3"/>
      <polygon points="242.5 17 234.9 33.7 227.3 17 222.9 17 215.2 33.7 207.6 17 201.4 17 213 42.2 217.4 42.2 225.1 25.5 232.7 42.2 237.1 42.2 248.8 17 242.5 17"/>
      <polygon points="282.5 37.5 282.5 20.6 276.9 20.6 276.9 42.2 298.6 42.2 298.6 37.5 282.5 37.5"/>
      <polygon points="307.1 37.5 307.1 20.6 301.6 20.6 301.6 42.2 323.2 42.2 323.2 37.5 307.1 37.5"/>
      <path d="M345.2,22.2H365V17H345.2a12.5,12.5,0,0,0-3.6.5,9,9,0,0,0-2.6,1.3,4.8,4.8,0,0,0-1.5,2.2,7.5,7.5,0,0,0-.5,2.6V35.7a7.5,7.5,0,0,0,.5,2.6,5.1,5.1,0,0,0,1.5,2.1,7.1,7.1,0,0,0,2.6,1.3,12.5,12.5,0,0,0,3.6.5H365V37H345.2c-2,0-2-.8-2-1.3V23.5C343.1,23.1,343.1,22.2,345.2,22.2Z"/>
      <polygon points="374.6 37.5 374.6 20.6 369 20.6 369 42.2 390.7 42.2 390.7 37.5 374.6 37.5"/>
      <rect x="393.8" y="20.6" width="5.5" height="21.6"/>
      <polygon points="426.5 20.6 426.5 34.5 407.9 20.6 403.5 20.6 403.5 42.2 408.5 42.2 408.5 27.6 428.5 42.2 431.5 42.2 431.5 20.6 426.5 20.6"/>
      <rect x="435.7" y="20.6" width="5.5" height="21.6"/>
      <path d="M452.3,25.3h16.9V20.6H452.3a9.3,9.3,0,0,0-3.1.4,7.1,7.1,0,0,0-2.3,1.2,3.6,3.6,0,0,0-1.3,1.9,5.4,5.4,0,0,0-.4,2.2V36.6a5.5,5.5,0,0,0,1.7,4.2,6.2,6.2,0,0,0,2.3,1.2,9.7,9.7,0,0,0,3.1.4h16.9V37.7H452.3c-1.6,0-1.6-.6-1.6-1V26.2C450.7,25.9,450.7,25.3,452.3,25.3Z"/>
      <path d="M157.9,20.6h-3.7L139.8,42.2h6.3l2.8-4.3H163l2.8,4.4h6.3ZM156,27l3.9,6.2h-8"/>
      <polygon points="41.6 9.7 19.2 32.1 0 32 32 0 41.6 9.7" style="fill: #8ec640"/>
      <polygon points="40.7 9.7 63.1 32.1 82.4 32 50.3 0 40.7 9.7" style="fill: #8ec640"/>
      <polygon points="41.6 58.5 19.2 36.1 0 36.2 32 68.2 41.6 58.5" style="fill: #1d75bc"/>
      <polygon points="40.7 58.5 63.1 36.1 82.4 36.2 50.3 68.2 40.7 58.5" style="fill: #1d75bc"/>
      <polygon points="272.4 25.2 272.4 20.5 250.3 20.5 250.3 42.1 272.4 42.1 272.4 37.4 255.8 37.4 255.8 33.1 269.6 33.1 269.6 32.2 269.6 29.3 269.6 28.4 255.8 28.4 255.8 25.2 272.4 25.2"/>
      <g>
        <path d="M472.8,21v4.2h-.5V21h-1.5v-.4h3.4V21Z"/>
        <path d="M479.4,25.2l-.3-3.9-1.6,3.9h-.4l-1.6-3.9-.3,3.9h-.4l.4-4.6h.6l1.6,4,1.6-4h.6l.4,4.6Z"/>
      </g>
    </g>
  </g>
</svg>
